<svg width="215" height="74" viewBox="0 0 215 74" fill="none" xmlns="http://www.w3.org/2000/svg">
<path d="M16.816 73.888C12.912 73.888 9.712 73.088 7.216 71.488C4.784 69.888 2.992 67.712 1.84 64.96C0.688 62.272 0.112 59.264 0.112 55.936C0.112 50.816 1.36 45.504 3.856 40C5.712 36.032 8.176 32.384 11.248 29.056C14.32 25.664 17.776 22.976 21.616 20.992C25.456 18.944 29.488 17.92 33.712 17.92C36.976 17.92 39.568 18.368 41.488 19.264C43.408 20.096 44.784 21.216 45.616 22.624C46.512 23.968 46.96 25.408 46.96 26.944C46.96 29.056 46.32 31.04 45.04 32.896C43.76 34.752 42.192 35.936 40.336 36.448C40.272 36.512 40.176 36.544 40.048 36.544C39.984 36.608 39.856 36.64 39.664 36.64C39.792 36.64 39.92 36.608 40.048 36.544C40.112 36.544 40.144 36.544 40.144 36.544L40.336 36.448C41.232 36.064 42.096 35.072 42.928 33.472C43.824 31.872 44.272 30.144 44.272 28.288C44.272 26.24 43.504 24.384 41.968 22.72C40.432 21.056 37.584 20.224 33.424 20.224C29.712 20.224 26.096 21.216 22.576 23.2C19.12 25.184 15.984 27.808 13.168 31.072C10.416 34.336 8.176 37.856 6.448 41.632C4.272 46.56 3.184 51.36 3.184 56.032C3.184 60.256 4.272 63.84 6.448 66.784C8.624 69.728 12.08 71.2 16.816 71.2C19.568 71.2 22.416 70.432 25.36 68.896C28.368 67.36 31.376 65.376 34.384 62.944C37.456 60.448 40.432 57.728 43.312 54.784C46.256 51.84 49.008 48.992 51.568 46.24C49.136 46.496 46.8 46.816 44.56 47.2C42.384 47.52 40.272 47.936 38.224 48.448H37.84C37.072 48.448 36.688 48.064 36.688 47.296C36.688 46.976 36.816 46.656 37.072 46.336C37.328 45.952 37.68 45.728 38.128 45.664C42.8 44.896 47.888 44.256 53.392 43.744C63.888 31.328 72.272 21.6 78.544 14.56C84.816 7.52 89.808 3.2 93.52 1.6C94.992 0.959997 96.4 0.639997 97.744 0.639997C99.152 0.639997 99.856 1.088 99.856 1.984C99.856 2.88 98.992 4.192 97.264 5.92C94.96 8.288 92.592 11.456 90.16 15.424C87.792 19.392 85.552 23.744 83.44 28.48C81.392 33.152 79.696 37.888 78.352 42.688C79.248 42.688 79.984 42.688 80.56 42.688C81.136 42.624 81.648 42.624 82.096 42.688C82.736 42.752 83.216 42.944 83.536 43.264C83.856 43.584 84.016 43.904 84.016 44.224C84.016 44.992 83.536 45.376 82.576 45.376C81.936 45.376 81.2 45.376 80.368 45.376C79.6 45.312 78.768 45.28 77.872 45.28C76.784 49.632 76.24 53.632 76.24 57.28C76.24 58.176 76.272 59.04 76.336 59.872C76.4 60.704 76.496 61.504 76.624 62.272C76.944 63.808 77.328 65.152 77.776 66.304C78.288 67.456 78.96 68.032 79.792 68.032C80.752 68.032 81.968 67.104 83.44 65.248C83.952 64.672 84.432 64.384 84.88 64.384C85.2 64.384 85.456 64.512 85.648 64.768C85.84 65.088 85.808 65.504 85.552 66.016C84.144 68.896 82.256 70.336 79.888 70.336C78.608 70.336 77.36 69.76 76.144 68.608C74.992 67.456 74.16 65.6 73.648 63.04C73.264 61.184 73.072 59.168 73.072 56.992C73.072 55.2 73.168 53.344 73.36 51.424C73.616 49.44 73.968 47.392 74.416 45.28C71.792 45.28 68.816 45.312 65.488 45.376C62.224 45.376 58.928 45.536 55.6 45.856C55.536 45.984 55.408 46.144 55.216 46.336C55.024 46.464 54.864 46.592 54.736 46.72C52.176 49.6 49.328 52.64 46.192 55.84C43.056 58.976 39.792 61.92 36.4 64.672C33.072 67.424 29.712 69.632 26.32 71.296C22.992 73.024 19.824 73.888 16.816 73.888ZM57.808 43.264C60.944 43.072 64.016 42.944 67.024 42.88C70.032 42.752 72.72 42.656 75.088 42.592C76.24 37.92 77.808 33.312 79.792 28.768C81.776 24.16 83.92 19.904 86.224 16C88.528 12.096 90.704 8.896 92.752 6.4C92.944 6.144 93.232 5.76 93.616 5.248C94 4.672 94.352 4.16 94.672 3.712C95.056 3.2 95.184 2.976 95.056 3.04C91.6 4.512 86.896 8.736 80.944 15.712C75.056 22.624 67.344 31.808 57.808 43.264ZM94.7245 66.88C92.5485 66.88 90.7245 66.464 89.2525 65.632C87.7805 64.8 87.0445 63.648 87.0445 62.176C87.0445 60.384 88.2605 58.272 90.6925 55.84C91.3965 53.28 92.3565 50.272 93.5725 46.816C94.8525 43.296 96.3245 39.584 97.9885 35.68C99.7165 31.776 101.541 27.936 103.461 24.16C105.381 20.32 107.365 16.832 109.413 13.696C111.461 10.496 113.444 7.904 115.365 5.92C115.557 5.792 115.749 5.664 115.941 5.536C116.197 5.408 116.453 5.344 116.709 5.344C117.093 5.344 117.541 5.504 118.053 5.824C118.565 6.08 118.821 6.368 118.821 6.688C118.821 6.944 118.725 7.232 118.533 7.552C115.589 10.944 112.645 15.072 109.701 19.936C106.757 24.736 104.037 29.824 101.541 35.2C99.0445 40.576 96.9325 45.824 95.2045 50.944C96.6765 48.768 98.4685 46.368 100.581 43.744C102.693 41.12 104.837 38.72 107.013 36.544C110.405 33.216 113.317 31.552 115.749 31.552C117.349 31.552 118.597 32.288 119.493 33.76C120.389 35.232 120.837 37.44 120.837 40.384C120.837 40.96 120.805 41.536 120.741 42.112C120.741 42.624 120.709 43.168 120.645 43.744C120.965 43.68 121.573 43.648 122.469 43.648C123.365 43.648 124.005 43.648 124.389 43.648C124.837 43.648 125.221 43.808 125.541 44.128C125.861 44.384 126.021 44.704 126.021 45.088C126.021 45.792 125.445 46.24 124.293 46.432C123.717 46.496 122.917 46.56 121.893 46.624C120.869 46.624 120.165 46.656 119.781 46.72C118.949 49.856 117.157 53.088 114.405 56.416C111.717 59.68 108.485 62.304 104.709 64.288C103.045 65.12 101.349 65.76 99.6205 66.208C97.8925 66.656 96.2605 66.88 94.7245 66.88ZM98.8525 50.56C102.373 48.96 105.573 47.616 108.453 46.528C111.397 45.44 114.277 44.672 117.093 44.224C117.349 43.328 117.541 42.464 117.669 41.632C117.797 40.736 117.861 39.84 117.861 38.944C117.861 37.216 117.637 36 117.189 35.296C116.805 34.592 116.293 34.24 115.653 34.24C114.757 34.24 113.701 34.72 112.484 35.68C111.269 36.64 110.149 37.6 109.125 38.56C107.333 40.224 105.573 42.112 103.845 44.224C102.181 46.336 100.517 48.448 98.8525 50.56ZM95.4925 64.192C96.5165 64.192 97.6045 64.064 98.7565 63.808C99.9085 63.552 101.093 63.136 102.309 62.56C105.701 60.896 108.613 58.592 111.045 55.648C113.477 52.704 115.269 49.888 116.421 47.2C112.837 48.032 109.317 49.088 105.861 50.368C102.469 51.584 99.3005 53.216 96.3565 55.264C94.5005 56.544 93.1565 57.728 92.3245 58.816C91.4925 59.904 91.0765 60.832 91.0765 61.6C91.0765 62.432 91.4925 63.072 92.3245 63.52C93.1565 63.968 94.2125 64.192 95.4925 64.192ZM132.274 66.208C130.546 66.208 129.17 65.76 128.146 64.864C127.122 63.968 126.354 62.88 125.842 61.6C125.394 60.256 125.17 59.008 125.17 57.856C125.17 56.32 125.458 54.624 126.034 52.768C126.61 50.848 127.122 49.536 127.57 48.832C127.57 48.64 127.538 48.448 127.474 48.256C127.474 48 127.474 47.776 127.474 47.584C127.474 45.856 127.73 44.064 128.242 42.208C128.818 40.032 129.842 38.048 131.314 36.256C132.786 34.4 134.61 32.896 136.786 31.744C139.026 30.592 141.458 30.016 144.082 30.016C147.154 30.016 149.522 30.848 151.186 32.512C152.85 34.112 153.682 36.224 153.682 38.848C153.682 42.496 153.01 45.632 151.666 48.256C150.386 50.88 149.01 53.408 147.538 55.84C147.282 56.352 147.058 56.768 146.866 57.088C146.674 57.408 146.866 57.568 147.442 57.568C149.298 57.568 151.122 56.8 152.914 55.264C154.706 53.728 156.978 50.816 159.73 46.528C159.922 46.208 160.114 45.952 160.306 45.76C160.498 45.568 160.786 45.472 161.17 45.472H161.362C162.066 45.472 162.482 45.888 162.61 46.72C162.61 46.912 162.546 47.136 162.418 47.392C160.818 50.208 159.186 52.64 157.522 54.688C155.922 56.736 154.002 58.304 151.762 59.392C149.522 60.416 146.706 60.96 143.314 61.024C141.97 62.304 140.306 63.488 138.322 64.576C136.402 65.664 134.386 66.208 132.274 66.208ZM141.49 57.376H142.45C143.794 55.776 145.074 53.952 146.29 51.904C147.57 49.856 148.594 47.744 149.362 45.568C150.13 43.328 150.514 41.216 150.514 39.232C150.514 37.376 150.034 35.808 149.074 34.528C148.114 33.184 146.45 32.512 144.082 32.512C142.482 32.512 140.914 32.864 139.378 33.568C137.906 34.208 136.626 35.008 135.538 35.968L135.826 36.352C135.954 36.288 136.146 36.256 136.402 36.256C136.786 36.256 137.138 36.416 137.458 36.736C137.778 36.992 137.938 37.28 137.938 37.6C137.938 37.792 137.906 37.952 137.842 38.08C137.778 38.208 137.682 38.336 137.554 38.464C136.466 40.064 135.41 41.568 134.386 42.976C133.362 44.384 132.402 45.984 131.506 47.776C131.314 48.224 131.09 48.672 130.834 49.12C131.346 51.488 132.53 53.472 134.386 55.072C136.306 56.608 138.674 57.376 141.49 57.376ZM132.85 63.52C134.13 63.52 135.41 63.136 136.69 62.368C137.97 61.536 139.058 60.768 139.954 60.064C135.09 59.552 131.506 57.408 129.202 53.632C129.138 54.08 129.01 54.752 128.818 55.648C128.626 56.544 128.53 57.44 128.53 58.336C128.53 59.616 128.818 60.8 129.394 61.888C129.97 62.976 131.122 63.52 132.85 63.52ZM176.799 66.112C175.711 66.112 174.719 65.792 173.823 65.152C172.927 64.512 172.479 63.392 172.479 61.792C172.479 59.744 172.991 57.568 174.015 55.264C175.103 52.96 176.447 50.432 178.047 47.68C175.999 50.048 173.695 52.608 171.135 55.36C168.639 58.112 166.143 60.32 163.647 61.984C161.471 63.392 159.679 64.096 158.271 64.096C157.119 64.096 156.255 63.712 155.678 62.944C155.038 62.176 154.718 61.184 154.718 59.968C154.718 58.56 155.038 57.184 155.678 55.84C157.087 52.512 158.687 48.896 160.479 44.992C162.271 41.024 164.159 37.536 166.143 34.528C166.335 34.272 166.527 34.08 166.719 33.952C166.975 33.76 167.263 33.664 167.583 33.664C168.031 33.664 168.415 33.792 168.734 34.048C169.119 34.304 169.311 34.624 169.311 35.008C169.311 35.136 169.247 35.328 169.119 35.584C168.735 36.48 168.031 37.92 167.007 39.904C166.047 41.824 164.927 44.032 163.647 46.528C162.367 49.024 161.055 51.584 159.711 54.208C158.687 56.192 158.175 57.92 158.175 59.392C158.175 60.544 158.591 61.12 159.423 61.12C159.807 61.12 160.223 60.992 160.671 60.736C162.591 59.648 164.287 58.368 165.759 56.896C167.231 55.424 168.671 53.92 170.079 52.384C170.975 51.424 171.839 50.464 172.671 49.504C173.567 48.544 174.431 47.552 175.263 46.528C175.583 46.208 176.191 45.44 177.087 44.224C178.047 43.008 179.103 41.664 180.255 40.192C181.407 38.656 182.431 37.312 183.327 36.16C184.287 34.944 184.863 34.208 185.055 33.952C185.567 33.44 186.335 33.184 187.359 33.184C187.871 33.184 188.319 33.312 188.703 33.568C189.151 33.76 189.375 34.112 189.375 34.624C189.375 35.072 189.055 35.84 188.415 36.928C187.839 37.952 187.135 39.104 186.303 40.384C185.471 41.6 184.671 42.72 183.903 43.744C183.135 44.768 182.591 45.536 182.271 46.048C182.015 46.496 181.535 47.36 180.831 48.64C180.127 49.856 179.359 51.296 178.527 52.96C177.759 54.56 177.087 56.128 176.511 57.664C175.935 59.2 175.647 60.48 175.647 61.504C175.647 62.656 176.127 63.232 177.087 63.232C178.111 63.232 179.295 62.592 180.639 61.312C181.983 60.032 183.391 58.464 184.863 56.608C186.335 54.688 187.711 52.8 188.991 50.944C190.271 49.024 191.359 47.424 192.255 46.144C192.511 45.824 192.767 45.632 193.023 45.568C193.279 45.504 193.471 45.472 193.599 45.472C194.239 45.472 194.623 45.856 194.751 46.624C194.751 46.816 194.527 47.36 194.079 48.256C193.631 49.152 193.183 49.888 192.735 50.464C192.159 51.296 191.263 52.576 190.047 54.304C188.895 55.968 187.551 57.76 186.015 59.68C184.543 61.536 182.911 63.2 181.119 64.672C179.967 65.632 178.527 66.112 176.799 66.112ZM195.414 67.456C194.134 67.456 193.174 67.04 192.534 66.208C191.894 65.44 191.478 64.512 191.286 63.424C191.094 62.336 190.998 61.376 190.998 60.544C190.998 57.92 191.478 54.976 192.438 51.712C193.398 48.448 194.518 45.184 195.798 41.92C197.142 38.656 198.358 35.744 199.446 33.184C198.294 33.248 197.014 33.44 195.606 33.76C194.262 34.08 193.046 34.24 191.958 34.24C191.062 34.24 190.614 33.856 190.614 33.088C190.614 32 191.19 31.36 192.342 31.168C193.75 30.848 195.19 30.592 196.662 30.4C198.134 30.208 199.574 30.048 200.982 29.92C201.366 29.216 201.91 28.128 202.614 26.656C203.318 25.184 204.118 23.616 205.014 21.952C205.91 20.224 206.774 18.688 207.606 17.344C208.502 15.936 209.238 14.944 209.814 14.368C210.198 13.984 210.614 13.792 211.062 13.792C211.51 13.792 211.894 13.92 212.214 14.176C212.534 14.432 212.694 14.752 212.694 15.136C212.694 15.328 212.598 15.584 212.406 15.904C210.806 17.888 209.462 20.064 208.374 22.432C207.286 24.8 206.198 27.104 205.11 29.344C206.262 29.216 207.478 29.088 208.758 28.96C210.038 28.832 211.286 28.768 212.502 28.768C212.886 28.768 213.238 28.832 213.558 28.96C213.942 29.088 214.134 29.376 214.134 29.824C214.134 30.208 213.942 30.528 213.558 30.784C213.238 31.04 212.854 31.232 212.406 31.36C210.998 31.616 209.526 31.84 207.99 32.032C206.518 32.16 205.046 32.32 203.574 32.512C202.742 34.432 201.782 36.576 200.694 38.944C199.606 41.312 198.55 43.776 197.526 46.336C196.566 48.832 195.766 51.264 195.126 53.632C194.486 56 194.166 58.144 194.166 60.064C194.166 60.384 194.166 60.928 194.166 61.696C194.23 62.4 194.39 63.04 194.646 63.616C194.902 64.192 195.286 64.48 195.798 64.48C196.886 64.48 197.654 64.192 198.102 63.616C198.55 63.04 199.062 62.752 199.638 62.752C200.086 62.752 200.47 62.88 200.79 63.136C201.174 63.392 201.366 63.712 201.366 64.096C201.366 64.672 200.982 65.216 200.214 65.728C199.51 66.24 198.678 66.656 197.718 66.976C196.758 67.296 195.99 67.456 195.414 67.456Z" fill="#323232"/>
</svg>
