<svg width="30" height="29" viewBox="0 0 30 29" fill="none" xmlns="http://www.w3.org/2000/svg">
<path d="M27.6923 6.96H21.9231C21.9231 5.11409 21.1937 3.34379 19.8954 2.03854C18.597 0.733284 16.8361 0 15 0C13.1639 0 11.403 0.733284 10.1046 2.03854C8.80632 3.34379 8.07692 5.11409 8.07692 6.96H2.30769C1.69565 6.96 1.10868 7.20443 0.675907 7.63951C0.243131 8.0746 0 8.6647 0 9.28V26.68C0 27.2953 0.243131 27.8854 0.675907 28.3205C1.10868 28.7556 1.69565 29 2.30769 29H27.6923C28.3043 29 28.8913 28.7556 29.3241 28.3205C29.7569 27.8854 30 27.2953 30 26.68V9.28C30 8.6647 29.7569 8.0746 29.3241 7.63951C28.8913 7.20443 28.3043 6.96 27.6923 6.96ZM15 2.32C16.2241 2.32 17.398 2.80886 18.2636 3.67902C19.1291 4.54919 19.6154 5.7294 19.6154 6.96H10.3846C10.3846 5.7294 10.8709 4.54919 11.7364 3.67902C12.602 2.80886 13.7759 2.32 15 2.32ZM27.6923 26.68H2.30769V9.28H8.07692V11.6C8.07692 11.9077 8.19849 12.2027 8.41488 12.4202C8.63126 12.6378 8.92475 12.76 9.23077 12.76C9.53679 12.76 9.83027 12.6378 10.0467 12.4202C10.263 12.2027 10.3846 11.9077 10.3846 11.6V9.28H19.6154V11.6C19.6154 11.9077 19.7369 12.2027 19.9533 12.4202C20.1697 12.6378 20.4632 12.76 20.7692 12.76C21.0752 12.76 21.3687 12.6378 21.5851 12.4202C21.8015 12.2027 21.9231 11.9077 21.9231 11.6V9.28H27.6923V26.68Z" fill="black"/>
</svg>
