<svg width="35" height="35" viewBox="0 0 35 35" fill="none" xmlns="http://www.w3.org/2000/svg">
<path d="M6.91523 3.71268L7.05027 4H7.36774H33.2502C33.5818 4 33.8997 4.1317 34.1341 4.36612C34.3685 4.60054 34.5002 4.91848 34.5002 5.25C34.5002 5.44698 34.4431 5.66614 34.3411 5.90405L28.0885 17.2041C28.0884 17.2042 28.0883 17.2044 28.0882 17.2046C27.5774 18.1206 26.5857 18.75 25.4627 18.75H12.4252H12.1302L11.9875 19.0083L10.4125 21.8608L10.381 21.9179L10.3652 21.9812L10.3127 22.1912L10.2977 22.2509V22.3125C10.2977 22.5611 10.3965 22.7996 10.5723 22.9754L10.9259 22.6219L10.5723 22.9754C10.7481 23.1512 10.9866 23.25 11.2352 23.25H31.0002V25.75H10.5002C9.70459 25.75 8.94153 25.4339 8.37892 24.8713C7.81631 24.3087 7.50024 23.5456 7.50024 22.75C7.50024 22.2243 7.63522 21.7288 7.85929 21.3093L10.2374 17.0252L10.3621 16.8005L10.252 16.5682L3.952 3.28573L3.81648 3H3.50024H0.500244V0.5H5.40527L6.91523 3.71268ZM26.2502 16.25H26.5443L26.6872 15.993L31.5522 7.24297L31.9653 6.5H31.1152H8.99524H8.20635L8.54308 7.21342L12.6731 15.9634L12.8083 16.25H13.1252H26.2502ZM28.0002 28.5C28.7959 28.5 29.559 28.8161 30.1216 29.3787C30.6842 29.9413 31.0002 30.7044 31.0002 31.5C31.0002 32.2957 30.6842 33.0587 30.1216 33.6213C29.559 34.1839 28.7959 34.5 28.0002 34.5C27.2046 34.5 26.4415 34.1839 25.8789 33.6213C25.3163 33.0587 25.0002 32.2957 25.0002 31.5C25.0002 29.8336 26.3339 28.5 28.0002 28.5ZM10.5002 28.5C11.2959 28.5 12.059 28.8161 12.6216 29.3787C13.1842 29.9413 13.5002 30.7044 13.5002 31.5C13.5002 32.2957 13.1842 33.0587 12.6216 33.6213C12.059 34.1839 11.2959 34.5 10.5002 34.5C9.7046 34.5 8.94153 34.1839 8.37892 33.6213C7.81631 33.0587 7.50024 32.2957 7.50024 31.5C7.50024 29.8336 8.83389 28.5 10.5002 28.5Z" fill="white" stroke="black"/>
</svg>
