<svg width="24" height="21" viewBox="0 0 24 21" fill="none" xmlns="http://www.w3.org/2000/svg">
<path d="M9.66957 1.28584L0.0595703 10.9458L9.66957 20.6058C9.75636 20.7198 9.86663 20.8138 9.9929 20.8815C10.1192 20.9491 10.2585 20.9888 10.4015 20.998C10.5444 21.0071 10.6877 20.9854 10.8216 20.9343C10.9554 20.8833 11.0767 20.8041 11.1773 20.702C11.2779 20.6 11.3553 20.4776 11.4045 20.343C11.4536 20.2085 11.4733 20.0649 11.4621 19.9221C11.451 19.7793 11.4092 19.6405 11.3398 19.5152C11.2703 19.3899 11.1748 19.281 11.0596 19.1958L3.86957 11.9458H22.9996C23.2648 11.9458 23.5191 11.8405 23.7067 11.6529C23.8942 11.4654 23.9996 11.2111 23.9996 10.9458C23.9996 10.6806 23.8942 10.4263 23.7067 10.2387C23.5191 10.0512 23.2648 9.94584 22.9996 9.94584H3.86957L11.0596 2.69584C11.2465 2.50754 11.3511 2.25267 11.3501 1.9873C11.3492 1.72194 11.2429 1.46782 11.0546 1.28084C10.8663 1.09386 10.6114 0.989346 10.346 0.990284C10.0807 0.991222 9.82655 1.09754 9.63957 1.28584H9.66957Z" fill="white"/>
</svg>
