<svg width="20" height="20" viewBox="0 0 20 20" fill="none" xmlns="http://www.w3.org/2000/svg">
<path d="M15.7318 15.4071C16.2262 15.4071 16.7003 15.6035 17.0499 15.9531C17.3994 16.3026 17.5958 16.7768 17.5958 17.2711C17.5958 17.7655 17.3994 18.2396 17.0499 18.5892C16.7003 18.9387 16.2262 19.1351 15.7318 19.1351C15.2375 19.1351 14.7633 18.9387 14.4138 18.5892C14.0642 18.2396 13.8678 17.7655 13.8678 17.2711C13.8678 16.2366 14.6973 15.4071 15.7318 15.4071ZM0.819824 0.495117H3.86746L4.74354 2.35912H18.5278C18.775 2.35912 19.0121 2.45731 19.1868 2.63209C19.3616 2.80688 19.4598 3.04394 19.4598 3.29112C19.4598 3.44956 19.4132 3.608 19.348 3.75712L16.0114 9.78716C15.6945 10.3557 15.0794 10.7471 14.3804 10.7471H7.43702L6.59822 12.2663L6.57026 12.3781C6.57026 12.4399 6.59481 12.4992 6.63851 12.5429C6.6822 12.5866 6.74147 12.6111 6.80326 12.6111H17.5958V14.4751H6.41182C5.91746 14.4751 5.44335 14.2787 5.09378 13.9292C4.74421 13.5796 4.54782 13.1055 4.54782 12.6111C4.54782 12.2849 4.6317 11.9774 4.7715 11.7164L6.03902 9.433L2.68382 2.35912H0.819824V0.495117ZM6.41182 15.4071C6.90619 15.4071 7.3803 15.6035 7.72987 15.9531C8.07944 16.3026 8.27582 16.7768 8.27582 17.2711C8.27582 17.7655 8.07944 18.2396 7.72987 18.5892C7.3803 18.9387 6.90619 19.1351 6.41182 19.1351C5.91746 19.1351 5.44335 18.9387 5.09378 18.5892C4.74421 18.2396 4.54782 17.7655 4.54782 17.2711C4.54782 16.2366 5.3773 15.4071 6.41182 15.4071ZM14.7998 8.88312L17.3908 4.22312H5.6103L7.80982 8.88312H14.7998Z" fill="#D5D5D5"/>
</svg>
