<svg width="26" height="47" viewBox="0 0 26 47" fill="none" xmlns="http://www.w3.org/2000/svg">
<path d="M0.614046 24.9642L22.6777 46.4414C23.0458 46.8 23.5349 47 24.0435 47C24.5522 47 25.0413 46.8 25.4094 46.4414L25.4332 46.4172C25.6123 46.2434 25.7549 46.0341 25.8523 45.8023C25.9497 45.5704 26 45.3206 26 45.0683C26 44.8159 25.9497 44.5662 25.8523 44.3343C25.7549 44.1024 25.6123 43.8932 25.4332 43.7194L4.65621 23.496L25.4332 3.28062C25.6123 3.10681 25.7549 2.89759 25.8523 2.6657C25.9497 2.43381 26 2.18409 26 1.93172C26 1.67936 25.9497 1.42964 25.8523 1.19775C25.7549 0.965855 25.6123 0.756634 25.4332 0.582821L25.4094 0.558552C25.0413 0.200012 24.5522 -3.8147e-06 24.0435 -3.8147e-06C23.5349 -3.8147e-06 23.0458 0.200012 22.6777 0.558552L0.614046 22.0358C0.420005 22.2247 0.265527 22.4519 0.159977 22.7035C0.0544262 22.9552 0 23.2262 0 23.5C0 23.7738 0.0544262 24.0448 0.159977 24.2965C0.265527 24.5481 0.420005 24.7753 0.614046 24.9642Z" fill="white"/>
</svg>
