<svg width="118" height="186" viewBox="0 0 118 186" fill="none" xmlns="http://www.w3.org/2000/svg">
<path d="M89.6667 0H28.3333C24.2667 0 20.3666 1.68571 17.491 4.68629C14.6155 7.68687 13 11.7565 13 16V144C13 148.243 14.6155 152.313 17.491 155.314C20.3666 158.314 24.2667 160 28.3333 160H89.6667C93.7333 160 97.6334 158.314 100.509 155.314C103.385 152.313 105 148.243 105 144V16C105 11.7565 103.385 7.68687 100.509 4.68629C97.6334 1.68571 93.7333 0 89.6667 0ZM66.6667 152H51.3333V144H66.6667V152ZM100.509 136H17.491V24H100.509V136Z" fill="#CFCFCF"/>
<path d="M10.608 180H8.928L2.816 170.512H2.752C2.76267 170.704 2.77333 170.917 2.784 171.152C2.80533 171.387 2.82133 171.643 2.832 171.92C2.84267 172.187 2.85333 172.464 2.864 172.752C2.87467 173.04 2.88 173.328 2.88 173.616V180H1.552V168.576H3.216L9.312 178.032H9.376C9.36533 177.904 9.35467 177.728 9.344 177.504C9.33333 177.269 9.32267 177.013 9.312 176.736C9.30133 176.448 9.29067 176.155 9.28 175.856C9.26933 175.557 9.264 175.28 9.264 175.024V168.576H10.608V180ZM20.9722 175.696C20.9722 176.411 20.8763 177.045 20.6843 177.6C20.5029 178.144 20.2363 178.608 19.8843 178.992C19.5429 179.376 19.1216 179.669 18.6203 179.872C18.1296 180.064 17.5803 180.16 16.9723 180.16C16.4069 180.16 15.8843 180.064 15.4043 179.872C14.9243 179.669 14.5083 179.376 14.1562 178.992C13.8043 178.608 13.5269 178.144 13.3243 177.6C13.1323 177.045 13.0363 176.411 13.0363 175.696C13.0363 174.747 13.1963 173.947 13.5163 173.296C13.8363 172.635 14.2949 172.133 14.8923 171.792C15.4896 171.44 16.1989 171.264 17.0203 171.264C17.7989 171.264 18.4816 171.44 19.0683 171.792C19.6656 172.133 20.1296 172.635 20.4603 173.296C20.8016 173.947 20.9722 174.747 20.9722 175.696ZM14.4923 175.696C14.4923 176.368 14.5776 176.955 14.7483 177.456C14.9296 177.947 15.2069 178.325 15.5803 178.592C15.9536 178.859 16.4283 178.992 17.0043 178.992C17.5803 178.992 18.0549 178.859 18.4283 178.592C18.8016 178.325 19.0736 177.947 19.2443 177.456C19.4256 176.955 19.5163 176.368 19.5163 175.696C19.5163 175.013 19.4256 174.432 19.2443 173.952C19.0629 173.472 18.7856 173.104 18.4123 172.848C18.0496 172.581 17.5749 172.448 16.9883 172.448C16.1136 172.448 15.4789 172.736 15.0843 173.312C14.6896 173.888 14.4923 174.683 14.4923 175.696ZM36.6415 174.176C36.6415 175.456 36.4015 176.528 35.9215 177.392C35.4522 178.256 34.7748 178.907 33.8895 179.344C33.0042 179.781 31.9322 180 30.6735 180H27.4895V168.576H31.0095C32.1615 168.576 33.1588 168.789 34.0015 169.216C34.8442 169.643 35.4948 170.272 35.9535 171.104C36.4122 171.925 36.6415 172.949 36.6415 174.176ZM35.1215 174.224C35.1215 173.211 34.9508 172.379 34.6095 171.728C34.2788 171.077 33.7882 170.597 33.1375 170.288C32.4975 169.968 31.7188 169.808 30.8015 169.808H28.9295V178.768H30.4815C32.0282 178.768 33.1855 178.389 33.9535 177.632C34.7322 176.864 35.1215 175.728 35.1215 174.224ZM42.233 171.28C43.2783 171.28 44.0517 171.509 44.553 171.968C45.0543 172.427 45.305 173.157 45.305 174.16V180H44.281L44.009 178.784H43.945C43.6997 179.093 43.4437 179.355 43.177 179.568C42.921 179.771 42.6223 179.92 42.281 180.016C41.9503 180.112 41.545 180.16 41.065 180.16C40.553 180.16 40.089 180.069 39.673 179.888C39.2677 179.707 38.9477 179.429 38.713 179.056C38.4783 178.672 38.361 178.192 38.361 177.616C38.361 176.763 38.697 176.107 39.369 175.648C40.041 175.179 41.0757 174.923 42.473 174.88L43.929 174.832V174.32C43.929 173.605 43.7743 173.109 43.465 172.832C43.1557 172.555 42.7183 172.416 42.153 172.416C41.705 172.416 41.2783 172.485 40.873 172.624C40.4677 172.752 40.089 172.901 39.737 173.072L39.305 172.016C39.6783 171.813 40.121 171.643 40.633 171.504C41.145 171.355 41.6783 171.28 42.233 171.28ZM42.649 175.856C41.5823 175.899 40.841 176.069 40.425 176.368C40.0197 176.667 39.817 177.088 39.817 177.632C39.817 178.112 39.961 178.464 40.249 178.688C40.5477 178.912 40.9263 179.024 41.385 179.024C42.1103 179.024 42.713 178.827 43.193 178.432C43.673 178.027 43.913 177.408 43.913 176.576V175.808L42.649 175.856ZM50.8177 179.008C51.0311 179.008 51.2498 178.992 51.4738 178.96C51.6978 178.917 51.8791 178.875 52.0178 178.832V179.904C51.8684 179.979 51.6551 180.037 51.3778 180.08C51.1004 180.133 50.8338 180.16 50.5778 180.16C50.1298 180.16 49.7138 180.085 49.3298 179.936C48.9564 179.776 48.6524 179.504 48.4178 179.12C48.1831 178.736 48.0658 178.197 48.0658 177.504V172.512H46.8498V171.84L48.0818 171.28L48.6418 169.456H49.4738V171.424H51.9538V172.512H49.4738V177.472C49.4738 177.995 49.5964 178.384 49.8418 178.64C50.0978 178.885 50.4231 179.008 50.8177 179.008ZM56.983 171.28C58.0283 171.28 58.8017 171.509 59.303 171.968C59.8043 172.427 60.055 173.157 60.055 174.16V180H59.031L58.759 178.784H58.695C58.4497 179.093 58.1937 179.355 57.927 179.568C57.671 179.771 57.3723 179.92 57.031 180.016C56.7003 180.112 56.295 180.16 55.815 180.16C55.303 180.16 54.839 180.069 54.423 179.888C54.0177 179.707 53.6977 179.429 53.463 179.056C53.2283 178.672 53.111 178.192 53.111 177.616C53.111 176.763 53.447 176.107 54.119 175.648C54.791 175.179 55.8257 174.923 57.223 174.88L58.679 174.832V174.32C58.679 173.605 58.5243 173.109 58.215 172.832C57.9057 172.555 57.4683 172.416 56.903 172.416C56.455 172.416 56.0283 172.485 55.623 172.624C55.2177 172.752 54.839 172.901 54.487 173.072L54.055 172.016C54.4283 171.813 54.871 171.643 55.383 171.504C55.895 171.355 56.4283 171.28 56.983 171.28ZM57.399 175.856C56.3323 175.899 55.591 176.069 55.175 176.368C54.7697 176.667 54.567 177.088 54.567 177.632C54.567 178.112 54.711 178.464 54.999 178.688C55.2977 178.912 55.6763 179.024 56.135 179.024C56.8603 179.024 57.463 178.827 57.943 178.432C58.423 178.027 58.663 177.408 58.663 176.576V175.808L57.399 175.856ZM68.4295 180H66.9895V168.576H73.3735V169.84H68.4295V173.888H73.0695V175.152H68.4295V180ZM82.5504 175.696C82.5504 176.411 82.4544 177.045 82.2624 177.6C82.081 178.144 81.8144 178.608 81.4624 178.992C81.121 179.376 80.6997 179.669 80.1984 179.872C79.7077 180.064 79.1584 180.16 78.5504 180.16C77.985 180.16 77.4624 180.064 76.9824 179.872C76.5024 179.669 76.0864 179.376 75.7344 178.992C75.3824 178.608 75.105 178.144 74.9024 177.6C74.7104 177.045 74.6144 176.411 74.6144 175.696C74.6144 174.747 74.7744 173.947 75.0944 173.296C75.4144 172.635 75.873 172.133 76.4704 171.792C77.0677 171.44 77.777 171.264 78.5984 171.264C79.377 171.264 80.0597 171.44 80.6464 171.792C81.2437 172.133 81.7077 172.635 82.0384 173.296C82.3797 173.947 82.5504 174.747 82.5504 175.696ZM76.0704 175.696C76.0704 176.368 76.1557 176.955 76.3264 177.456C76.5077 177.947 76.785 178.325 77.1584 178.592C77.5317 178.859 78.0064 178.992 78.5824 178.992C79.1584 178.992 79.633 178.859 80.0064 178.592C80.3797 178.325 80.6517 177.947 80.8224 177.456C81.0037 176.955 81.0944 176.368 81.0944 175.696C81.0944 175.013 81.0037 174.432 80.8224 173.952C80.641 173.472 80.3637 173.104 79.9904 172.848C79.6277 172.581 79.153 172.448 78.5664 172.448C77.6917 172.448 77.057 172.736 76.6624 173.312C76.2677 173.888 76.0704 174.683 76.0704 175.696ZM91.9499 171.424V180H90.7979L90.5899 178.864H90.5259C90.3445 179.163 90.1099 179.408 89.8219 179.6C89.5339 179.792 89.2192 179.931 88.8779 180.016C88.5365 180.112 88.1792 180.16 87.8059 180.16C87.1232 180.16 86.5472 180.053 86.0779 179.84C85.6192 179.616 85.2725 179.275 85.0379 178.816C84.8032 178.357 84.6859 177.765 84.6859 177.04V171.424H86.1099V176.944C86.1099 177.627 86.2645 178.139 86.5739 178.48C86.8832 178.821 87.3632 178.992 88.0139 178.992C88.6539 178.992 89.1552 178.875 89.5179 178.64C89.8912 178.395 90.1525 178.043 90.3019 177.584C90.4619 177.115 90.5419 176.549 90.5419 175.888V171.424H91.9499ZM98.8005 171.264C99.8245 171.264 100.598 171.515 101.121 172.016C101.643 172.507 101.905 173.307 101.905 174.416V180H100.513V174.512C100.513 173.819 100.358 173.301 100.049 172.96C99.7392 172.619 99.2538 172.448 98.5925 172.448C97.6432 172.448 96.9872 172.715 96.6245 173.248C96.2618 173.781 96.0805 174.549 96.0805 175.552V180H94.6725V171.424H95.8085L96.0165 172.592H96.0965C96.2885 172.293 96.5232 172.048 96.8005 171.856C97.0885 171.653 97.4032 171.504 97.7445 171.408C98.0858 171.312 98.4378 171.264 98.8005 171.264ZM107.603 180.16C106.536 180.16 105.683 179.792 105.043 179.056C104.403 178.309 104.083 177.2 104.083 175.728C104.083 174.256 104.403 173.147 105.043 172.4C105.694 171.643 106.552 171.264 107.619 171.264C108.067 171.264 108.456 171.323 108.787 171.44C109.118 171.547 109.406 171.696 109.651 171.888C109.896 172.08 110.104 172.293 110.275 172.528H110.371C110.36 172.389 110.339 172.187 110.307 171.92C110.286 171.643 110.275 171.424 110.275 171.264V167.84H111.683V180H110.547L110.339 178.848H110.275C110.104 179.093 109.896 179.317 109.651 179.52C109.406 179.712 109.112 179.867 108.771 179.984C108.44 180.101 108.051 180.16 107.603 180.16ZM107.827 178.992C108.734 178.992 109.368 178.747 109.731 178.256C110.104 177.755 110.291 177.003 110.291 176V175.744C110.291 174.677 110.115 173.861 109.763 173.296C109.411 172.72 108.76 172.432 107.811 172.432C107.054 172.432 106.483 172.736 106.099 173.344C105.726 173.941 105.539 174.747 105.539 175.76C105.539 176.784 105.726 177.579 106.099 178.144C106.483 178.709 107.059 178.992 107.827 178.992ZM114.119 179.056C114.119 178.629 114.226 178.331 114.439 178.16C114.652 177.989 114.908 177.904 115.207 177.904C115.516 177.904 115.778 177.989 115.991 178.16C116.215 178.331 116.327 178.629 116.327 179.056C116.327 179.472 116.215 179.771 115.991 179.952C115.778 180.133 115.516 180.224 115.207 180.224C114.908 180.224 114.652 180.133 114.439 179.952C114.226 179.771 114.119 179.472 114.119 179.056Z" fill="#BBBBBB"/>
</svg>
