<svg width="57" height="57" viewBox="0 0 57 57" fill="none" xmlns="http://www.w3.org/2000/svg">
<path d="M28.1996 26.2C30.464 26.2 32.2996 24.3644 32.2996 22.1C32.2996 19.8356 30.464 18 28.1996 18C25.9352 18 24.0996 19.8356 24.0996 22.1C24.0996 24.3644 25.9352 26.2 28.1996 26.2Z" fill="white"/>
<path d="M36.4 33.8874C36.4 36.4345 36.4 38.4999 28.2 38.4999C20 38.4999 20 36.4345 20 33.8874C20 31.3403 23.6716 29.2749 28.2 29.2749C32.7285 29.2749 36.4 31.3403 36.4 33.8874Z" fill="white"/>
<path fill-rule="evenodd" clip-rule="evenodd" d="M28.5 57C44.2401 57 57 44.2401 57 28.5C57 12.7599 44.2401 0 28.5 0C12.7599 0 0 12.7599 0 28.5C0 44.2401 12.7599 57 28.5 57ZM28.5 56C43.6878 56 56 43.6878 56 28.5C56 13.3122 43.6878 1 28.5 1C13.3122 1 1 13.3122 1 28.5C1 43.6878 13.3122 56 28.5 56Z" fill="#D9D9D9"/>
</svg>
