<svg width="27" height="48" viewBox="0 0 27 48" fill="none" xmlns="http://www.w3.org/2000/svg">
<path d="M25.886 22.5358L3.82232 1.05855C3.45417 0.700012 2.96507 0.5 2.45645 0.5C1.94783 0.5 1.45873 0.700012 1.09059 1.05855L1.06683 1.08282C0.887747 1.25663 0.745146 1.46585 0.647699 1.69774C0.550253 1.92964 0.5 2.17936 0.5 2.43172C0.5 2.68408 0.550253 2.93381 0.647699 3.1657C0.745146 3.39759 0.887747 3.60681 1.06683 3.78062L21.8438 24.004L1.06683 44.2194C0.887747 44.3932 0.745146 44.6024 0.647699 44.8343C0.550253 45.0662 0.5 45.3159 0.5 45.5683C0.5 45.8206 0.550253 46.0704 0.647699 46.3023C0.745146 46.5341 0.887747 46.7434 1.06683 46.9172L1.09059 46.9414C1.45873 47.3 1.94783 47.5 2.45645 47.5C2.96507 47.5 3.45417 47.3 3.82232 46.9414L25.886 25.4642C26.08 25.2753 26.2345 25.0481 26.34 24.7965C26.4456 24.5448 26.5 24.2738 26.5 24C26.5 23.7262 26.4456 23.4552 26.34 23.2035C26.2345 22.9519 26.08 22.7247 25.886 22.5358Z" fill="white"/>
</svg>
