<svg width="19" height="19" viewBox="0 0 19 19" fill="none" xmlns="http://www.w3.org/2000/svg">
<path d="M17.8203 17.3651L12.3836 11.9284M1.51025 7.39783C1.51025 8.23078 1.67431 9.05557 1.99307 9.82511C2.31182 10.5946 2.77903 11.2939 3.36801 11.8829C3.95699 12.4718 4.65621 12.939 5.42576 13.2578C6.1953 13.5765 7.02009 13.7406 7.85303 13.7406C8.68598 13.7406 9.51077 13.5765 10.2803 13.2578C11.0498 12.939 11.7491 12.4718 12.3381 11.8829C12.927 11.2939 13.3942 10.5946 13.713 9.82511C14.0317 9.05557 14.1958 8.23078 14.1958 7.39783C14.1958 6.56489 14.0317 5.7401 13.713 4.97056C13.3942 4.20101 12.927 3.50179 12.3381 2.91281C11.7491 2.32383 11.0498 1.85662 10.2803 1.53787C9.51077 1.21911 8.68598 1.05505 7.85303 1.05505C7.02009 1.05505 6.1953 1.21911 5.42576 1.53787C4.65621 1.85662 3.95699 2.32383 3.36801 2.91281C2.77903 3.50179 2.31182 4.20101 1.99307 4.97056C1.67431 5.7401 1.51025 6.56489 1.51025 7.39783Z" stroke="white" stroke-width="2" stroke-linecap="round" stroke-linejoin="round"/>
</svg>
