<svg width="17" height="19" viewBox="0 0 17 19" fill="none" xmlns="http://www.w3.org/2000/svg">
<path d="M10.346 4.02018C10.5226 4.19236 10.762 4.28907 11.0116 4.28907C11.2611 4.28907 11.5005 4.19236 11.6771 4.02018L12.5813 3.13752V15.6296C12.5813 15.8734 12.6805 16.1073 12.8571 16.2797C13.0338 16.4521 13.2733 16.549 13.5231 16.549C13.7729 16.549 14.0125 16.4521 14.1891 16.2797C14.3657 16.1073 14.4649 15.8734 14.4649 15.6296V3.13752L15.3691 4.02018C15.4553 4.11051 15.5593 4.18297 15.6748 4.23322C15.7904 4.28347 15.9151 4.31049 16.0416 4.31267C16.168 4.31485 16.2936 4.29214 16.4109 4.2459C16.5282 4.19965 16.6347 4.13083 16.7241 4.04352C16.8136 3.95621 16.8841 3.85221 16.9315 3.73773C16.9788 3.62324 17.0021 3.50061 16.9999 3.37716C16.9976 3.25371 16.9699 3.13196 16.9185 3.01918C16.867 2.90639 16.7928 2.80489 16.7002 2.72071L14.1887 0.268891C14.0121 0.0967114 13.7727 0 13.5231 0C13.2735 0 13.0341 0.0967114 12.8576 0.268891L10.346 2.72071C10.1696 2.89311 10.0706 3.1268 10.0706 3.37045C10.0706 3.6141 10.1696 3.84778 10.346 4.02018ZM4.41872 15.8625L5.32288 14.9798C5.4091 14.8895 5.51308 14.817 5.62861 14.7668C5.74414 14.7165 5.86886 14.6895 5.99532 14.6873C6.12178 14.6852 6.2474 14.7079 6.36467 14.7541C6.48195 14.8003 6.58848 14.8692 6.67791 14.9565C6.76735 15.0438 6.83785 15.1478 6.88522 15.2623C6.93259 15.3768 6.95586 15.4994 6.95362 15.6228C6.95139 15.7463 6.92371 15.868 6.87224 15.9808C6.82076 16.0936 6.74654 16.1951 6.65401 16.2793L4.14245 18.7311C3.96585 18.9033 3.72647 19 3.47689 19C3.2273 19 2.98792 18.9033 2.81132 18.7311L0.299764 16.2793C0.20723 16.1951 0.133011 16.0936 0.0815339 15.9808C0.0300571 15.868 0.00237783 15.7463 0.000146578 15.6228C-0.00208467 15.4994 0.0211779 15.3768 0.0685471 15.2623C0.115916 15.1478 0.186422 15.0438 0.275857 14.9565C0.365292 14.8692 0.471824 14.8003 0.589099 14.7541C0.706374 14.7079 0.831988 14.6852 0.958449 14.6873C1.08491 14.6895 1.20963 14.7165 1.32516 14.7668C1.44069 14.817 1.54467 14.8895 1.63089 14.9798L2.53505 15.8625V3.37045C2.53505 3.1266 2.63428 2.89274 2.81091 2.72031C2.98754 2.54788 3.2271 2.45101 3.47689 2.45101C3.72668 2.45101 3.96623 2.54788 4.14286 2.72031C4.31949 2.89274 4.41872 3.1266 4.41872 3.37045V15.8625Z" fill="#5F5F5F"/>
</svg>
