<svg width="24" height="21" viewBox="0 0 24 21" fill="none" xmlns="http://www.w3.org/2000/svg">
<path d="M14.3304 19.7142L23.9404 10.0542L14.3304 0.394159C14.2436 0.280186 14.1334 0.18619 14.0071 0.118537C13.8808 0.0508832 13.7415 0.0111509 13.5985 0.00202928C13.4555 -0.00709237 13.3123 0.0146102 13.1784 0.065667C13.0446 0.116724 12.9233 0.195943 12.8227 0.297962C12.7221 0.399981 12.6447 0.522418 12.5955 0.656983C12.5464 0.791549 12.5267 0.935101 12.5379 1.07792C12.549 1.22074 12.5908 1.3595 12.6602 1.4848C12.7297 1.61009 12.8252 1.71901 12.9404 1.80416L20.1304 9.05416L1.00043 9.05416C0.73521 9.05416 0.480857 9.15952 0.293321 9.34705C0.105784 9.53459 0.0004263 9.78894 0.0004263 10.0542C0.0004263 10.3194 0.105784 10.5737 0.293321 10.7613C0.480857 10.9488 0.73521 11.0542 1.00043 11.0542L20.1304 11.0542L12.9404 18.3042C12.7535 18.4925 12.6489 18.7473 12.6499 19.0127C12.6508 19.2781 12.7571 19.5322 12.9454 19.7192C13.1337 19.9061 13.3886 20.0107 13.654 20.0097C13.9193 20.0088 14.1735 19.9025 14.3604 19.7142H14.3304Z" fill="white"/>
</svg>
